G04*
G04 #@! TF.GenerationSoftware,Altium Limited,Altium Designer,22.4.2 (48)*
G04*
G04 Layer_Color=2752767*
%FSLAX25Y25*%
%MOIN*%
G70*
G04*
G04 #@! TF.SameCoordinates,35F994A0-CBEB-4DCB-B987-FA79AE394E82*
G04*
G04*
G04 #@! TF.FilePolarity,Positive*
G04*
G01*
G75*
%ADD13C,0.00500*%
%ADD40C,0.00667*%
G36*
X278296Y259842D02*
X288633D01*
Y225984D01*
X287846D01*
X278296D01*
Y259842D01*
D02*
G37*
D13*
X280677Y359811D02*
Y363811D01*
X284677D01*
Y359811D01*
X280677D01*
X677921Y106268D02*
Y110268D01*
X681921D01*
Y106268D01*
X677921D01*
X668866Y208236D02*
Y212236D01*
X672866D01*
Y208236D01*
X668866D01*
X561779Y121622D02*
Y125622D01*
X565779D01*
Y121622D01*
X561779D01*
X562173Y208630D02*
Y212630D01*
X566173D01*
Y208630D01*
X562173D01*
X315774Y114059D02*
X313774Y118059D01*
X317774D01*
X315774Y114059D01*
Y133744D02*
X313774Y137744D01*
X317774D01*
X315774Y133744D01*
X675953Y359024D02*
Y363024D01*
X679953D01*
Y359024D01*
X675953D01*
X337008Y224378D02*
X338008Y225378D01*
X339008D01*
X338008Y226378D01*
X339008Y227378D01*
X338008D01*
X337008Y228378D01*
X336008Y227378D01*
X335008D01*
X336008Y226378D01*
X335008Y225378D01*
X336008D01*
X337008Y224378D01*
Y216504D02*
X338008Y217504D01*
X339008D01*
X338008Y218504D01*
X339008Y219504D01*
X338008D01*
X337008Y220504D01*
X336008Y219504D01*
X335008D01*
X336008Y218504D01*
X335008Y217504D01*
X336008D01*
X337008Y216504D01*
X315381Y167996D02*
X316381Y168996D01*
X317381D01*
X316381Y169996D01*
X317381Y170996D01*
X316381D01*
X315381Y171996D01*
X314381Y170996D01*
X313381D01*
X314381Y169996D01*
X313381Y168996D01*
X314381D01*
X315381Y167996D01*
X323255D02*
X324255Y168996D01*
X325255D01*
X324255Y169996D01*
X325255Y170996D01*
X324255D01*
X323255Y171996D01*
X322255Y170996D01*
X321255D01*
X322255Y169996D01*
X321255Y168996D01*
X322255D01*
X323255Y167996D01*
X310656Y187287D02*
X311656Y188287D01*
X312656D01*
X311656Y189287D01*
X312656Y190287D01*
X311656D01*
X310656Y191287D01*
X309656Y190287D01*
X308656D01*
X309656Y189287D01*
X308656Y188287D01*
X309656D01*
X310656Y187287D01*
X329947D02*
X330947Y188287D01*
X331947D01*
X330947Y189287D01*
X331947Y190287D01*
X330947D01*
X329947Y191287D01*
X328947Y190287D01*
X327947D01*
X328947Y189287D01*
X327947Y188287D01*
X328947D01*
X329947Y187287D01*
X351181Y240126D02*
X352181Y241126D01*
X353181D01*
X352181Y242126D01*
X353181Y243126D01*
X352181D01*
X351181Y244126D01*
X350181Y243126D01*
X349181D01*
X350181Y242126D01*
X349181Y241126D01*
X350181D01*
X351181Y240126D01*
Y259417D02*
X352181Y260417D01*
X353181D01*
X352181Y261417D01*
X353181Y262417D01*
X352181D01*
X351181Y263417D01*
X350181Y262417D01*
X349181D01*
X350181Y261417D01*
X349181Y260417D01*
X350181D01*
X351181Y259417D01*
X375559Y251819D02*
X376559Y253819D01*
X375559Y255819D01*
X377559Y254819D01*
X379559Y255819D01*
X378559Y253819D01*
X379559Y251819D01*
X377559Y252819D01*
X375559Y251819D01*
Y241819D02*
X376559Y243819D01*
X375559Y245819D01*
X377559Y244819D01*
X379559Y245819D01*
X378559Y243819D01*
X379559Y241819D01*
X377559Y242819D01*
X375559Y241819D01*
X361205Y234394D02*
Y233394D01*
X363205D01*
Y234394D01*
X364205D01*
Y236394D01*
X363205D01*
Y237394D01*
X361205D01*
Y236394D01*
X360205D01*
Y234394D01*
X361205D01*
Y264394D02*
Y263394D01*
X363205D01*
Y264394D01*
X364205D01*
Y266394D01*
X363205D01*
Y267394D01*
X361205D01*
Y266394D01*
X360205D01*
Y264394D01*
X361205D01*
X281071Y108236D02*
Y112236D01*
X285071D01*
Y108236D01*
X281071D01*
X285008Y279496D02*
Y283496D01*
X289008D01*
Y279496D01*
X285008D01*
X284614Y342094D02*
Y346094D01*
X288614D01*
Y342094D01*
X284614D01*
X353118Y115618D02*
Y119618D01*
X357118D01*
Y115618D01*
X353118D01*
X511779Y344850D02*
X512780D01*
X513779Y345850D01*
X514780Y344850D01*
X515779D01*
Y345850D01*
X514780Y346850D01*
X515779Y347850D01*
Y348850D01*
X514780D01*
X513779Y347850D01*
X512780Y348850D01*
X511779D01*
Y347850D01*
X512780Y346850D01*
X511779Y345850D01*
Y344850D01*
X570835Y312173D02*
X571835D01*
X572835Y313173D01*
X573835Y312173D01*
X574835D01*
Y313173D01*
X573835Y314173D01*
X574835Y315173D01*
Y316173D01*
X573835D01*
X572835Y315173D01*
X571835Y316173D01*
X570835D01*
Y315173D01*
X571835Y314173D01*
X570835Y313173D01*
Y312173D01*
X558236Y323197D02*
X559236D01*
X560236Y324197D01*
X561236Y323197D01*
X562236D01*
Y324197D01*
X561236Y325197D01*
X562236Y326197D01*
Y327197D01*
X561236D01*
X560236Y326197D01*
X559236Y327197D01*
X558236D01*
Y326197D01*
X559236Y325197D01*
X558236Y324197D01*
Y323197D01*
X405362Y349575D02*
X406362D01*
X407362Y350575D01*
X408362Y349575D01*
X409362D01*
Y350575D01*
X408362Y351575D01*
X409362Y352575D01*
Y353575D01*
X408362D01*
X407362Y352575D01*
X406362Y353575D01*
X405362D01*
Y352575D01*
X406362Y351575D01*
X405362Y350575D01*
Y349575D01*
X400362Y357055D02*
X401362D01*
X402362Y358055D01*
X403362Y357055D01*
X404362D01*
Y358055D01*
X403362Y359055D01*
X404362Y360055D01*
Y361055D01*
X403362D01*
X402362Y360055D01*
X401362Y361055D01*
X400362D01*
Y360055D01*
X401362Y359055D01*
X400362Y358055D01*
Y357055D01*
X322016Y249969D02*
X323016D01*
X324016Y250969D01*
X325016Y249969D01*
X326016D01*
Y250969D01*
X325016Y251969D01*
X326016Y252969D01*
Y253969D01*
X325016D01*
X324016Y252969D01*
X323016Y253969D01*
X322016D01*
Y252969D01*
X323016Y251969D01*
X322016Y250969D01*
Y249969D01*
X492488Y194850D02*
X493488D01*
X494488Y195850D01*
X495488Y194850D01*
X496488D01*
Y195850D01*
X495488Y196850D01*
X496488Y197850D01*
Y198850D01*
X495488D01*
X494488Y197850D01*
X493488Y198850D01*
X492488D01*
Y197850D01*
X493488Y196850D01*
X492488Y195850D01*
Y194850D01*
X488551Y204299D02*
X489551D01*
X490551Y205299D01*
X491551Y204299D01*
X492551D01*
Y205299D01*
X491551Y206299D01*
X492551Y207299D01*
Y208299D01*
X491551D01*
X490551Y207299D01*
X489551Y208299D01*
X488551D01*
Y207299D01*
X489551Y206299D01*
X488551Y205299D01*
Y204299D01*
X314535Y232646D02*
X315535D01*
X316535Y233646D01*
X317535Y232646D01*
X318535D01*
Y233646D01*
X317535Y234646D01*
X318535Y235646D01*
Y236646D01*
X317535D01*
X316535Y235646D01*
X315535Y236646D01*
X314535D01*
Y235646D01*
X315535Y234646D01*
X314535Y233646D01*
Y232646D01*
D40*
X505543Y131890D02*
G03*
X505543Y131890I-2000J0D01*
G01*
Y141890D02*
G03*
X505543Y141890I-2000J0D01*
G01*
Y151890D02*
G03*
X505543Y151890I-2000J0D01*
G01*
Y161890D02*
G03*
X505543Y161890I-2000J0D01*
G01*
Y171890D02*
G03*
X505543Y171890I-2000J0D01*
G01*
Y181890D02*
G03*
X505543Y181890I-2000J0D01*
G01*
Y191890D02*
G03*
X505543Y191890I-2000J0D01*
G01*
Y201890D02*
G03*
X505543Y201890I-2000J0D01*
G01*
Y211890D02*
G03*
X505543Y211890I-2000J0D01*
G01*
Y221890D02*
G03*
X505543Y221890I-2000J0D01*
G01*
Y231890D02*
G03*
X505543Y231890I-2000J0D01*
G01*
Y241890D02*
G03*
X505543Y241890I-2000J0D01*
G01*
Y251890D02*
G03*
X505543Y251890I-2000J0D01*
G01*
Y261890D02*
G03*
X505543Y261890I-2000J0D01*
G01*
Y271890D02*
G03*
X505543Y271890I-2000J0D01*
G01*
Y281890D02*
G03*
X505543Y281890I-2000J0D01*
G01*
Y291890D02*
G03*
X505543Y291890I-2000J0D01*
G01*
Y301890D02*
G03*
X505543Y301890I-2000J0D01*
G01*
Y311890D02*
G03*
X505543Y311890I-2000J0D01*
G01*
Y321890D02*
G03*
X505543Y321890I-2000J0D01*
G01*
Y331890D02*
G03*
X505543Y331890I-2000J0D01*
G01*
Y341890D02*
G03*
X505543Y341890I-2000J0D01*
G01*
X566882Y338583D02*
G03*
X566882Y338583I-2000J0D01*
G01*
X556882D02*
G03*
X556882Y338583I-2000J0D01*
G01*
X546882D02*
G03*
X546882Y338583I-2000J0D01*
G01*
X536882D02*
G03*
X536882Y338583I-2000J0D01*
G01*
X526882D02*
G03*
X526882Y338583I-2000J0D01*
G01*
Y270472D02*
G03*
X526882Y270472I-2000J0D01*
G01*
X536882D02*
G03*
X536882Y270472I-2000J0D01*
G01*
X546882D02*
G03*
X546882Y270472I-2000J0D01*
G01*
X556882D02*
G03*
X556882Y270472I-2000J0D01*
G01*
X566882D02*
G03*
X566882Y270472I-2000J0D01*
G01*
X532315Y202441D02*
G03*
X532315Y202441I-2000J0D01*
G01*
Y192441D02*
G03*
X532315Y192441I-2000J0D01*
G01*
Y182441D02*
G03*
X532315Y182441I-2000J0D01*
G01*
Y172441D02*
G03*
X532315Y172441I-2000J0D01*
G01*
Y162441D02*
G03*
X532315Y162441I-2000J0D01*
G01*
Y152441D02*
G03*
X532315Y152441I-2000J0D01*
G01*
Y142441D02*
G03*
X532315Y142441I-2000J0D01*
G01*
Y132441D02*
G03*
X532315Y132441I-2000J0D01*
G01*
X398614Y210630D02*
G03*
X398614Y210630I-2000J0D01*
G01*
X388614D02*
G03*
X388614Y210630I-2000J0D01*
G01*
X378614D02*
G03*
X378614Y210630I-2000J0D01*
G01*
X368614D02*
G03*
X368614Y210630I-2000J0D01*
G01*
X358614D02*
G03*
X358614Y210630I-2000J0D01*
G01*
X419717Y341890D02*
G03*
X419717Y341890I-2000J0D01*
G01*
Y331890D02*
G03*
X419717Y331890I-2000J0D01*
G01*
Y321890D02*
G03*
X419717Y321890I-2000J0D01*
G01*
Y311890D02*
G03*
X419717Y311890I-2000J0D01*
G01*
Y301890D02*
G03*
X419717Y301890I-2000J0D01*
G01*
Y291890D02*
G03*
X419717Y291890I-2000J0D01*
G01*
Y281890D02*
G03*
X419717Y281890I-2000J0D01*
G01*
Y271890D02*
G03*
X419717Y271890I-2000J0D01*
G01*
Y261890D02*
G03*
X419717Y261890I-2000J0D01*
G01*
Y251890D02*
G03*
X419717Y251890I-2000J0D01*
G01*
Y241890D02*
G03*
X419717Y241890I-2000J0D01*
G01*
Y231890D02*
G03*
X419717Y231890I-2000J0D01*
G01*
Y221890D02*
G03*
X419717Y221890I-2000J0D01*
G01*
Y211890D02*
G03*
X419717Y211890I-2000J0D01*
G01*
Y201890D02*
G03*
X419717Y201890I-2000J0D01*
G01*
Y191890D02*
G03*
X419717Y191890I-2000J0D01*
G01*
Y181890D02*
G03*
X419717Y181890I-2000J0D01*
G01*
Y171890D02*
G03*
X419717Y171890I-2000J0D01*
G01*
Y161890D02*
G03*
X419717Y161890I-2000J0D01*
G01*
Y151890D02*
G03*
X419717Y151890I-2000J0D01*
G01*
Y141890D02*
G03*
X419717Y141890I-2000J0D01*
G01*
Y131890D02*
G03*
X419717Y131890I-2000J0D01*
G01*
X397768Y282697D02*
G03*
X397768Y282697I-2000J0D01*
G01*
Y292697D02*
G03*
X397768Y292697I-2000J0D01*
G01*
Y302697D02*
G03*
X397768Y302697I-2000J0D01*
G01*
Y312697D02*
G03*
X397768Y312697I-2000J0D01*
G01*
Y322697D02*
G03*
X397768Y322697I-2000J0D01*
G01*
Y332697D02*
G03*
X397768Y332697I-2000J0D01*
G01*
M02*
