G04*
G04 #@! TF.GenerationSoftware,Altium Limited,Altium Designer,22.4.2 (48)*
G04*
G04 Layer_Color=128*
%FSLAX25Y25*%
%MOIN*%
G70*
G04*
G04 #@! TF.SameCoordinates,35F994A0-CBEB-4DCB-B987-FA79AE394E82*
G04*
G04*
G04 #@! TF.FilePolarity,Positive*
G04*
G01*
G75*
%ADD13C,0.00500*%
G36*
X278296Y259842D02*
X288633D01*
Y225984D01*
X287846D01*
X278296D01*
Y259842D01*
D02*
G37*
D13*
X278677Y361811D02*
X286677D01*
X282677Y357811D02*
Y365811D01*
X675921Y108268D02*
X683921D01*
X679921Y104268D02*
Y112268D01*
X501772Y131890D02*
X505315D01*
X503543Y130118D02*
Y133661D01*
X501772Y141890D02*
X505315D01*
X503543Y140118D02*
Y143661D01*
X501772Y151890D02*
X505315D01*
X503543Y150118D02*
Y153661D01*
X501772Y161890D02*
X505315D01*
X503543Y160118D02*
Y163661D01*
X501772Y171890D02*
X505315D01*
X503543Y170118D02*
Y173661D01*
X501772Y181890D02*
X505315D01*
X503543Y180118D02*
Y183661D01*
X501772Y191890D02*
X505315D01*
X503543Y190118D02*
Y193661D01*
X501772Y201890D02*
X505315D01*
X503543Y200118D02*
Y203661D01*
X501772Y211890D02*
X505315D01*
X503543Y210118D02*
Y213661D01*
X501772Y221890D02*
X505315D01*
X503543Y220118D02*
Y223661D01*
X501772Y231890D02*
X505315D01*
X503543Y230118D02*
Y233661D01*
X501772Y241890D02*
X505315D01*
X503543Y240118D02*
Y243661D01*
X501772Y251890D02*
X505315D01*
X503543Y250118D02*
Y253661D01*
X501772Y261890D02*
X505315D01*
X503543Y260118D02*
Y263661D01*
X501772Y271890D02*
X505315D01*
X503543Y270118D02*
Y273661D01*
X501772Y281890D02*
X505315D01*
X503543Y280118D02*
Y283661D01*
X501772Y291890D02*
X505315D01*
X503543Y290118D02*
Y293661D01*
X501772Y301890D02*
X505315D01*
X503543Y300118D02*
Y303661D01*
X501772Y311890D02*
X505315D01*
X503543Y310118D02*
Y313661D01*
X501772Y321890D02*
X505315D01*
X503543Y320118D02*
Y323661D01*
X501772Y331890D02*
X505315D01*
X503543Y330118D02*
Y333661D01*
X501772Y341890D02*
X505315D01*
X503543Y340118D02*
Y343661D01*
X666866Y210236D02*
X674866D01*
X670866Y206236D02*
Y214236D01*
X559780Y123622D02*
X567779D01*
X563779Y119622D02*
Y127622D01*
X560173Y210630D02*
X568173D01*
X564173Y206630D02*
Y214630D01*
X563110Y338583D02*
X566653D01*
X564882Y336811D02*
Y340354D01*
X553110Y338583D02*
X556653D01*
X554882Y336811D02*
Y340354D01*
X543110Y338583D02*
X546654D01*
X544882Y336811D02*
Y340354D01*
X533110Y338583D02*
X536654D01*
X534882Y336811D02*
Y340354D01*
X523110Y338583D02*
X526653D01*
X524882Y336811D02*
Y340354D01*
X523110Y270472D02*
X526653D01*
X524882Y268701D02*
Y272244D01*
X533110Y270472D02*
X536654D01*
X534882Y268701D02*
Y272244D01*
X543110Y270472D02*
X546654D01*
X544882Y268701D02*
Y272244D01*
X553110Y270472D02*
X556653D01*
X554882Y268701D02*
Y272244D01*
X563110Y270472D02*
X566653D01*
X564882Y268701D02*
Y272244D01*
X313609Y116059D02*
X317940D01*
X315774Y113893D02*
Y118224D01*
X313609Y135744D02*
X317940D01*
X315774Y133578D02*
Y137909D01*
X528543Y202441D02*
X532087D01*
X530315Y200669D02*
Y204213D01*
X528543Y192441D02*
X532087D01*
X530315Y190669D02*
Y194213D01*
X528543Y182441D02*
X532087D01*
X530315Y180669D02*
Y184213D01*
X528543Y172441D02*
X532087D01*
X530315Y170669D02*
Y174213D01*
X528543Y162441D02*
X532087D01*
X530315Y160669D02*
Y164213D01*
X528543Y152441D02*
X532087D01*
X530315Y150669D02*
Y154213D01*
X528543Y142441D02*
X532087D01*
X530315Y140669D02*
Y144213D01*
X528543Y132441D02*
X532087D01*
X530315Y130669D02*
Y134213D01*
X673953Y361024D02*
X681953D01*
X677953Y357024D02*
Y365024D01*
X335508Y226378D02*
X338508D01*
X337008Y224878D02*
Y227878D01*
X335508Y218504D02*
X338508D01*
X337008Y217004D02*
Y220004D01*
X313881Y169996D02*
X316881D01*
X315381Y168496D02*
Y171496D01*
X321755Y169996D02*
X324755D01*
X323255Y168496D02*
Y171496D01*
X309156Y189287D02*
X312156D01*
X310656Y187787D02*
Y190787D01*
X328448Y189287D02*
X331448D01*
X329947Y187787D02*
Y190787D01*
X349681Y242126D02*
X352681D01*
X351181Y240626D02*
Y243626D01*
X349681Y261417D02*
X352681D01*
X351181Y259917D02*
Y262917D01*
X375984Y253819D02*
X379134D01*
X377559Y252244D02*
Y255394D01*
X375984Y243819D02*
X379134D01*
X377559Y242244D02*
Y245394D01*
X360531Y235394D02*
X363878D01*
X362205Y233720D02*
Y237067D01*
X360531Y265394D02*
X363878D01*
X362205Y263720D02*
Y267067D01*
X394843Y210630D02*
X398386D01*
X396614Y208858D02*
Y212402D01*
X384842Y210630D02*
X388386D01*
X386614Y208858D02*
Y212402D01*
X374843Y210630D02*
X378386D01*
X376614Y208858D02*
Y212402D01*
X364843Y210630D02*
X368386D01*
X366614Y208858D02*
Y212402D01*
X354842Y210630D02*
X358386D01*
X356614Y208858D02*
Y212402D01*
X279071Y110236D02*
X287071D01*
X283071Y106236D02*
Y114236D01*
X283008Y281496D02*
X291008D01*
X287008Y277496D02*
Y285496D01*
X282614Y344094D02*
X290614D01*
X286614Y340094D02*
Y348095D01*
X351118Y117618D02*
X359118D01*
X355118Y113618D02*
Y121618D01*
X415945Y341890D02*
X419488D01*
X417717Y340118D02*
Y343661D01*
X415945Y331890D02*
X419488D01*
X417717Y330118D02*
Y333661D01*
X415945Y321890D02*
X419488D01*
X417717Y320118D02*
Y323661D01*
X415945Y311890D02*
X419488D01*
X417717Y310118D02*
Y313661D01*
X415945Y301890D02*
X419488D01*
X417717Y300118D02*
Y303661D01*
X415945Y291890D02*
X419488D01*
X417717Y290118D02*
Y293661D01*
X415945Y281890D02*
X419488D01*
X417717Y280118D02*
Y283661D01*
X415945Y271890D02*
X419488D01*
X417717Y270118D02*
Y273661D01*
X415945Y261890D02*
X419488D01*
X417717Y260118D02*
Y263661D01*
X415945Y251890D02*
X419488D01*
X417717Y250118D02*
Y253661D01*
X415945Y241890D02*
X419488D01*
X417717Y240118D02*
Y243661D01*
X415945Y231890D02*
X419488D01*
X417717Y230118D02*
Y233661D01*
X415945Y221890D02*
X419488D01*
X417717Y220118D02*
Y223661D01*
X415945Y211890D02*
X419488D01*
X417717Y210118D02*
Y213661D01*
X415945Y201890D02*
X419488D01*
X417717Y200118D02*
Y203661D01*
X415945Y191890D02*
X419488D01*
X417717Y190118D02*
Y193661D01*
X415945Y181890D02*
X419488D01*
X417717Y180118D02*
Y183661D01*
X415945Y171890D02*
X419488D01*
X417717Y170118D02*
Y173661D01*
X415945Y161890D02*
X419488D01*
X417717Y160118D02*
Y163661D01*
X415945Y151890D02*
X419488D01*
X417717Y150118D02*
Y153661D01*
X415945Y141890D02*
X419488D01*
X417717Y140118D02*
Y143661D01*
X415945Y131890D02*
X419488D01*
X417717Y130118D02*
Y133661D01*
X393996Y282697D02*
X397539D01*
X395768Y280925D02*
Y284469D01*
X393996Y292697D02*
X397539D01*
X395768Y290925D02*
Y294468D01*
X393996Y302697D02*
X397539D01*
X395768Y300925D02*
Y304468D01*
X393996Y312697D02*
X397539D01*
X395768Y310925D02*
Y314469D01*
X393996Y322697D02*
X397539D01*
X395768Y320925D02*
Y324468D01*
X393996Y332697D02*
X397539D01*
X395768Y330925D02*
Y334469D01*
X512380Y346850D02*
X515179D01*
X513779Y345450D02*
Y348250D01*
X571435Y314173D02*
X574235D01*
X572835Y312773D02*
Y315573D01*
X558836Y325197D02*
X561636D01*
X560236Y323797D02*
Y326597D01*
X405962Y351575D02*
X408762D01*
X407362Y350175D02*
Y352975D01*
X400962Y359055D02*
X403762D01*
X402362Y357655D02*
Y360455D01*
X322616Y251969D02*
X325416D01*
X324016Y250569D02*
Y253368D01*
X493088Y196850D02*
X495888D01*
X494488Y195450D02*
Y198250D01*
X489151Y206299D02*
X491951D01*
X490551Y204899D02*
Y207699D01*
X315135Y234646D02*
X317935D01*
X316535Y233246D02*
Y236046D01*
M02*
