G04*
G04 #@! TF.GenerationSoftware,Altium Limited,Altium Designer,22.4.2 (48)*
G04*
G04 Layer_Color=65535*
%FSLAX25Y25*%
%MOIN*%
G70*
G04*
G04 #@! TF.SameCoordinates,35F994A0-CBEB-4DCB-B987-FA79AE394E82*
G04*
G04*
G04 #@! TF.FilePolarity,Positive*
G04*
G01*
G75*
%ADD10C,0.00787*%
%ADD11C,0.00984*%
%ADD12C,0.01000*%
%ADD13C,0.00500*%
%ADD14C,0.03000*%
G36*
X626473Y255104D02*
X626907D01*
Y255322D01*
X627125D01*
Y255539D01*
X627342D01*
Y255756D01*
X627776D01*
Y255973D01*
X627993D01*
Y256191D01*
X628428D01*
Y256408D01*
X628645D01*
Y256625D01*
X629297D01*
Y256842D01*
X629731D01*
Y257060D01*
X630600D01*
Y257277D01*
X661227D01*
Y246633D01*
X661662D01*
Y246850D01*
X661879D01*
Y247068D01*
X662096D01*
Y247285D01*
X662313D01*
Y247502D01*
X662748D01*
Y247719D01*
X662965D01*
Y247937D01*
X663399D01*
Y248154D01*
X663834D01*
Y248371D01*
X664268D01*
Y248588D01*
X665137D01*
Y248805D01*
X666223D01*
Y249023D01*
X679473D01*
Y229473D01*
X679256D01*
Y228170D01*
X679039D01*
Y227301D01*
X678822D01*
Y226649D01*
X678604D01*
Y226215D01*
X678387D01*
Y225781D01*
X678170D01*
Y225346D01*
X677953D01*
Y225129D01*
X677736D01*
Y224912D01*
X677518D01*
Y224477D01*
X677301D01*
Y224260D01*
X677084D01*
Y224043D01*
X676867D01*
Y223826D01*
X676650D01*
Y223608D01*
X676432D01*
Y223391D01*
X676215D01*
Y223174D01*
X675781D01*
Y222957D01*
X675563D01*
Y222740D01*
X675129D01*
Y222522D01*
X674694D01*
Y222305D01*
X674260D01*
Y222088D01*
X673826D01*
Y221871D01*
X672957D01*
Y221654D01*
X672088D01*
Y221436D01*
X650584D01*
Y230994D01*
X649498D01*
Y231211D01*
X648412D01*
Y231428D01*
X647543D01*
Y231645D01*
X647108D01*
Y231863D01*
X646674D01*
Y232080D01*
X646240D01*
Y232297D01*
X646022D01*
Y232514D01*
X645588D01*
Y232732D01*
X645371D01*
Y232949D01*
X645153D01*
Y233166D01*
X644936D01*
Y233383D01*
X644719D01*
Y233600D01*
X644502D01*
Y233818D01*
X644285D01*
Y234035D01*
X644067D01*
Y234252D01*
X643850D01*
Y234469D01*
X643633D01*
Y234252D01*
X643416D01*
Y233818D01*
X643198D01*
Y233600D01*
X642981D01*
Y233166D01*
X642764D01*
Y232949D01*
X642547D01*
Y232732D01*
X642330D01*
Y232514D01*
X642112D01*
Y232297D01*
X641895D01*
Y232080D01*
X641678D01*
Y231863D01*
X641461D01*
Y231645D01*
X641244D01*
Y231428D01*
X640809D01*
Y231211D01*
X640592D01*
Y230994D01*
X640158D01*
Y230777D01*
X639723D01*
Y230559D01*
X639071D01*
Y230342D01*
X638420D01*
Y230125D01*
X637551D01*
Y229908D01*
X615830D01*
Y240551D01*
X615395D01*
Y240334D01*
X615178D01*
Y240117D01*
X614743D01*
Y239899D01*
X614526D01*
Y239682D01*
X614309D01*
Y239465D01*
X613875D01*
Y239248D01*
X613440D01*
Y239031D01*
X613006D01*
Y238813D01*
X612354D01*
Y238596D01*
X611485D01*
Y238379D01*
X597583D01*
Y258145D01*
X597801D01*
Y259232D01*
X598018D01*
Y260101D01*
X598235D01*
Y260752D01*
X598452D01*
Y261187D01*
X598670D01*
Y261621D01*
X598887D01*
Y261838D01*
X599104D01*
Y262273D01*
X599321D01*
Y262490D01*
X599538D01*
Y262707D01*
X599756D01*
Y262924D01*
X599973D01*
Y263359D01*
X600407D01*
Y263576D01*
X600625D01*
Y263793D01*
X600842D01*
Y264010D01*
X601059D01*
Y264228D01*
X601276D01*
Y264445D01*
X601711D01*
Y264662D01*
X602145D01*
Y264879D01*
X602579D01*
Y265096D01*
X603014D01*
Y265314D01*
X603665D01*
Y265531D01*
X604752D01*
Y265748D01*
X626473D01*
Y255104D01*
D02*
G37*
%LPC*%
G36*
X624084Y263576D02*
X605403D01*
Y263359D01*
X604317D01*
Y263141D01*
X603665D01*
Y262924D01*
X603231D01*
Y262707D01*
X602797D01*
Y262490D01*
X602579D01*
Y262273D01*
X602362D01*
Y262055D01*
X601928D01*
Y261838D01*
X601711D01*
Y261621D01*
X601493D01*
Y261187D01*
X601276D01*
Y260969D01*
X601059D01*
Y260752D01*
X600842D01*
Y260318D01*
X600625D01*
Y259883D01*
X600407D01*
Y259449D01*
X600190D01*
Y258580D01*
X599973D01*
Y240551D01*
X610834D01*
Y240768D01*
X611702D01*
Y240986D01*
X612137D01*
Y241203D01*
X612571D01*
Y241420D01*
X613006D01*
Y241637D01*
X613223D01*
Y241855D01*
X613657D01*
Y242072D01*
X613875D01*
Y242289D01*
X614092D01*
Y242506D01*
X614309D01*
Y242723D01*
X614526D01*
Y243158D01*
X614743D01*
Y243375D01*
X614961D01*
Y243809D01*
X615178D01*
Y244244D01*
X615395D01*
Y244678D01*
X615612D01*
Y245547D01*
X615830D01*
Y246633D01*
X607141D01*
Y246850D01*
X606706D01*
Y247068D01*
X606489D01*
Y247285D01*
X606272D01*
Y248371D01*
X606489D01*
Y248588D01*
X606706D01*
Y248805D01*
X607141D01*
Y249023D01*
X615830D01*
Y255104D01*
X606924D01*
Y255322D01*
X606489D01*
Y255539D01*
X606272D01*
Y256842D01*
X606489D01*
Y257060D01*
X606706D01*
Y257277D01*
X618002D01*
Y232297D01*
X618219D01*
Y232080D01*
X636682D01*
Y232297D01*
X637768D01*
Y232514D01*
X638420D01*
Y232732D01*
X638854D01*
Y232949D01*
X639289D01*
Y233166D01*
X639723D01*
Y233383D01*
X639940D01*
Y233600D01*
X640158D01*
Y233818D01*
X640375D01*
Y234035D01*
X640592D01*
Y234252D01*
X640809D01*
Y234469D01*
X641026D01*
Y234686D01*
X641244D01*
Y235121D01*
X641461D01*
Y235555D01*
X641678D01*
Y235990D01*
X641895D01*
Y236641D01*
X642112D01*
Y237727D01*
X642330D01*
Y246633D01*
X633641D01*
Y246850D01*
X632989D01*
Y247068D01*
X632772D01*
Y247719D01*
X632555D01*
Y247937D01*
X632772D01*
Y248588D01*
X632989D01*
Y248805D01*
X633424D01*
Y249023D01*
X644502D01*
Y237945D01*
X644719D01*
Y237293D01*
X644936D01*
Y236859D01*
X645153D01*
Y236424D01*
X645371D01*
Y235990D01*
X645588D01*
Y235772D01*
X645805D01*
Y235555D01*
X646022D01*
Y235121D01*
X646240D01*
Y234904D01*
X646457D01*
Y234686D01*
X646891D01*
Y234469D01*
X647108D01*
Y234252D01*
X647543D01*
Y234035D01*
X647760D01*
Y233818D01*
X648412D01*
Y233600D01*
X649063D01*
Y233383D01*
X652756D01*
Y224043D01*
X652973D01*
Y223826D01*
X672305D01*
Y224043D01*
X672957D01*
Y224260D01*
X673608D01*
Y224477D01*
X674043D01*
Y224694D01*
X674260D01*
Y224912D01*
X674694D01*
Y225129D01*
X674912D01*
Y225346D01*
X675129D01*
Y225563D01*
X675346D01*
Y225781D01*
X675563D01*
Y225998D01*
X675781D01*
Y226215D01*
X675998D01*
Y226649D01*
X676215D01*
Y227084D01*
X676432D01*
Y227518D01*
X676650D01*
Y227953D01*
X676867D01*
Y228822D01*
X677084D01*
Y238379D01*
X667961D01*
Y238596D01*
X667744D01*
Y238813D01*
X667526D01*
Y240117D01*
X667744D01*
Y240334D01*
X668178D01*
Y240551D01*
X677084D01*
Y246633D01*
X665789D01*
Y246416D01*
X665137D01*
Y246199D01*
X664486D01*
Y245982D01*
X664268D01*
Y245764D01*
X663834D01*
Y245547D01*
X663617D01*
Y245330D01*
X663399D01*
Y245113D01*
X663182D01*
Y244896D01*
X662965D01*
Y244678D01*
X662748D01*
Y244461D01*
X662531D01*
Y244244D01*
X662313D01*
Y244027D01*
X662096D01*
Y243592D01*
X661879D01*
Y243158D01*
X661662D01*
Y242506D01*
X661445D01*
Y241855D01*
X661227D01*
Y232297D01*
X661445D01*
Y232080D01*
X670350D01*
Y231863D01*
X670568D01*
Y231645D01*
X670785D01*
Y230559D01*
X670568D01*
Y230342D01*
X670350D01*
Y230125D01*
X670133D01*
Y229908D01*
X659055D01*
Y255104D01*
X652973D01*
Y254887D01*
X652756D01*
Y238813D01*
X652539D01*
Y238379D01*
X651887D01*
Y238162D01*
X651453D01*
Y238379D01*
X651018D01*
Y238596D01*
X650801D01*
Y239031D01*
X650584D01*
Y247937D01*
Y248154D01*
Y255104D01*
X631252D01*
Y254887D01*
X630600D01*
Y254670D01*
X629948D01*
Y254453D01*
X629514D01*
Y254236D01*
X629080D01*
Y254018D01*
X628862D01*
Y253801D01*
X628645D01*
Y253584D01*
X628428D01*
Y253367D01*
X628211D01*
Y253150D01*
X627993D01*
Y252932D01*
X627776D01*
Y252715D01*
X627559D01*
Y252498D01*
X627342D01*
Y252063D01*
X627125D01*
Y251629D01*
X626907D01*
Y251195D01*
X626690D01*
Y250543D01*
X626473D01*
Y240551D01*
X635379D01*
Y240334D01*
X635813D01*
Y239899D01*
X636030D01*
Y239031D01*
X635813D01*
Y238596D01*
X635379D01*
Y238379D01*
X624301D01*
Y263359D01*
X624084D01*
Y263576D01*
D02*
G37*
%LPD*%
D10*
X641634Y350748D02*
G03*
X641634Y350748I-394J0D01*
G01*
X310236Y227598D02*
G03*
X310236Y227598I-394J0D01*
G01*
X498543Y346890D02*
X508543D01*
Y126890D02*
Y346890D01*
X498543Y126890D02*
X508543D01*
X498543D02*
Y134390D01*
Y346890D01*
X519882Y333583D02*
Y343583D01*
X569882D01*
X519882Y333583D02*
X569882D01*
Y343583D01*
Y265472D02*
Y275472D01*
X519882Y265472D02*
X569882D01*
X519882Y275472D02*
X569882D01*
X519882Y265472D02*
Y275472D01*
X299633Y106216D02*
Y147949D01*
Y106216D02*
X331916D01*
Y147949D01*
X299633D02*
X331916D01*
X525315Y127441D02*
Y207441D01*
Y127441D02*
X535315D01*
Y207441D01*
X525315D02*
X535315D01*
X362205Y240394D02*
X365205D01*
Y260394D01*
X359205D02*
X365205D01*
X359205Y240394D02*
Y260394D01*
Y240394D02*
X362205D01*
Y260394D02*
Y261294D01*
Y239494D02*
Y240394D01*
X351614Y205630D02*
Y215630D01*
X401614D01*
X351614Y205630D02*
X401614D01*
Y215630D01*
X412716Y134390D02*
Y346890D01*
Y126890D02*
Y134390D01*
Y126890D02*
X422717D01*
Y346890D01*
X412716D02*
X422717D01*
X390768Y337697D02*
X400768D01*
X390768Y277697D02*
X400768D01*
X390768D02*
Y337697D01*
X400768Y277697D02*
Y337697D01*
D11*
X334967Y135744D02*
G03*
X334967Y135744I-492J0D01*
G01*
D12*
X346850Y222441D02*
G03*
X346850Y222441I-9843J0D01*
G01*
X329160Y169996D02*
G03*
X329160Y169996I-9843J0D01*
G01*
X277677Y359561D02*
Y364061D01*
X287677Y359561D02*
Y364061D01*
X280427Y356811D02*
X284927D01*
X277677D02*
Y359561D01*
Y364061D02*
Y366811D01*
X280427D02*
X284927D01*
X287677D01*
X277677D02*
X280427D01*
X287677Y356811D02*
Y359561D01*
Y364061D02*
Y366811D01*
X284927Y356811D02*
X287677D01*
X277677D02*
X280427D01*
X674921Y106018D02*
Y110518D01*
X684921Y106018D02*
Y110518D01*
X677671Y103268D02*
X682171D01*
X674921D02*
Y106018D01*
Y110518D02*
Y113268D01*
X677671D02*
X682171D01*
X684921D01*
X674921D02*
X677671D01*
X684921Y103268D02*
Y106018D01*
Y110518D02*
Y113268D01*
X682171Y103268D02*
X684921D01*
X674921D02*
X677671D01*
X665866Y205236D02*
X668616D01*
X673116D02*
X675866D01*
Y212486D02*
Y215236D01*
Y205236D02*
Y207986D01*
X665866Y215236D02*
X668616D01*
X673116D02*
X675866D01*
X668616D02*
X673116D01*
X665866Y212486D02*
Y215236D01*
Y205236D02*
Y207986D01*
X668616Y205236D02*
X673116D01*
X675866Y207986D02*
Y212486D01*
X665866Y207986D02*
Y212486D01*
X558779Y118622D02*
X561529D01*
X566030D02*
X568780D01*
Y125872D02*
Y128622D01*
Y118622D02*
Y121372D01*
X558779Y128622D02*
X561529D01*
X566030D02*
X568780D01*
X561529D02*
X566030D01*
X558779Y125872D02*
Y128622D01*
Y118622D02*
Y121372D01*
X561529Y118622D02*
X566030D01*
X568780Y121372D02*
Y125872D01*
X558779Y121372D02*
Y125872D01*
X559173Y205630D02*
X561923D01*
X566423D02*
X569173D01*
Y212880D02*
Y215630D01*
Y205630D02*
Y208380D01*
X559173Y215630D02*
X561923D01*
X566423D02*
X569173D01*
X561923D02*
X566423D01*
X559173Y212880D02*
Y215630D01*
Y205630D02*
Y208380D01*
X561923Y205630D02*
X566423D01*
X569173Y208380D02*
Y212880D01*
X559173Y208380D02*
Y212880D01*
X557480Y217323D02*
X677559D01*
Y116929D02*
Y217323D01*
X557480Y116929D02*
Y217323D01*
Y116929D02*
X677559D01*
X518110Y345669D02*
X592913D01*
X518110Y262992D02*
Y345669D01*
X592913Y262992D02*
Y345669D01*
X518110Y262992D02*
X592913D01*
X672953Y356024D02*
X675703D01*
X680203D02*
X682953D01*
Y363274D02*
Y366024D01*
Y356024D02*
Y358774D01*
X672953Y366024D02*
X675703D01*
X680203D02*
X682953D01*
X675703D02*
X680203D01*
X672953Y363274D02*
Y366024D01*
Y356024D02*
Y358774D01*
X675703Y356024D02*
X680203D01*
X682953Y358774D02*
Y363274D01*
X672953Y358774D02*
Y363274D01*
X305144Y183775D02*
Y194799D01*
X335459D01*
Y183775D02*
Y194799D01*
X305144Y183775D02*
X335459D01*
X345669Y236614D02*
Y266929D01*
Y236614D02*
X356693D01*
Y266929D01*
X345669D02*
X356693D01*
X279528Y272835D02*
X385827D01*
X279528D02*
Y351575D01*
X385827Y272835D02*
Y351575D01*
X278071Y107986D02*
Y112486D01*
X288071Y107986D02*
Y112486D01*
X280821Y105236D02*
X285321D01*
X278071D02*
Y107986D01*
Y112486D02*
Y115236D01*
X280821D02*
X285321D01*
X288071D01*
X278071D02*
X280821D01*
X288071Y105236D02*
Y107986D01*
Y112486D02*
Y115236D01*
X285321Y105236D02*
X288071D01*
X278071D02*
X280821D01*
X282008Y279246D02*
Y283746D01*
X292008Y279246D02*
Y283746D01*
X284758Y276496D02*
X289258D01*
X282008D02*
Y279246D01*
Y283746D02*
Y286496D01*
X284758D02*
X289258D01*
X292008D01*
X282008D02*
X284758D01*
X292008Y276496D02*
Y279246D01*
Y283746D02*
Y286496D01*
X289258Y276496D02*
X292008D01*
X282008D02*
X284758D01*
X281614Y341845D02*
Y346344D01*
X291614Y341845D02*
Y346344D01*
X284364Y339094D02*
X288864D01*
X281614D02*
Y341845D01*
Y346344D02*
Y349095D01*
X284364D02*
X288864D01*
X291614D01*
X281614D02*
X284364D01*
X291614Y339094D02*
Y341845D01*
Y346344D02*
Y349095D01*
X288864Y339094D02*
X291614D01*
X281614D02*
X284364D01*
X279528Y351575D02*
X385827D01*
X350118Y115368D02*
Y119868D01*
X360118Y115368D02*
Y119868D01*
X352868Y112618D02*
X357368D01*
X350118D02*
Y115368D01*
Y119868D02*
Y122618D01*
X352868D02*
X357368D01*
X360118D01*
X350118D02*
X352868D01*
X360118Y112618D02*
Y115368D01*
Y119868D02*
Y122618D01*
X357368Y112618D02*
X360118D01*
X350118D02*
X352868D01*
X348425Y220079D02*
X405118D01*
X348425Y110630D02*
Y220079D01*
Y110630D02*
X405118D01*
Y220079D01*
X410630Y361811D02*
X510630D01*
Y112598D02*
Y361811D01*
X410630Y112598D02*
X510630D01*
X410630D02*
Y351575D01*
Y361811D01*
X327062Y169764D02*
X331061D01*
X329061Y171764D02*
Y167765D01*
X334936Y212284D02*
X338935D01*
X336935Y214283D02*
Y210285D01*
X292732Y118354D02*
X296731D01*
X294732Y120353D02*
Y116354D01*
X293126Y139976D02*
X297125D01*
X590370Y168022D02*
Y162024D01*
X594369D01*
X600367Y167022D02*
X599367Y168022D01*
X597368D01*
X596368Y167022D01*
Y163023D01*
X597368Y162024D01*
X599367D01*
X600367Y163023D01*
X602366Y168022D02*
X606365D01*
Y167022D01*
X602366Y163023D01*
Y162024D01*
X612363Y168022D02*
X610364Y167022D01*
X608364Y165023D01*
Y163023D01*
X609364Y162024D01*
X611363D01*
X612363Y163023D01*
Y164023D01*
X611363Y165023D01*
X608364D01*
X618361Y167022D02*
X617361Y168022D01*
X615362D01*
X614362Y167022D01*
Y163023D01*
X615362Y162024D01*
X617361D01*
X618361Y163023D01*
Y165023D01*
X616362D01*
X630357Y167022D02*
X629357Y168022D01*
X627358D01*
X626358Y167022D01*
Y163023D01*
X627358Y162024D01*
X629357D01*
X630357Y163023D01*
Y165023D01*
X628358D01*
X632357Y162024D02*
Y168022D01*
X636355Y162024D01*
Y168022D01*
X642353Y167022D02*
X641354Y168022D01*
X639354D01*
X638355Y167022D01*
Y166022D01*
X639354Y165023D01*
X641354D01*
X642353Y164023D01*
Y163023D01*
X641354Y162024D01*
X639354D01*
X638355Y163023D01*
X648351Y167022D02*
X647352Y168022D01*
X645352D01*
X644353Y167022D01*
Y166022D01*
X645352Y165023D01*
X647352D01*
X648351Y164023D01*
Y163023D01*
X647352Y162024D01*
X645352D01*
X644353Y163023D01*
X539583Y308179D02*
Y302181D01*
X542582D01*
X543581Y303181D01*
Y304181D01*
X542582Y305180D01*
X539583D01*
X542582D01*
X543581Y306180D01*
Y307179D01*
X542582Y308179D01*
X539583D01*
X545581Y302181D02*
Y308179D01*
X547580Y306180D01*
X549579Y308179D01*
Y302181D01*
X554578Y308179D02*
X552578D01*
X551579Y307179D01*
Y303181D01*
X552578Y302181D01*
X554578D01*
X555578Y303181D01*
Y307179D01*
X554578Y308179D01*
X557577Y307179D02*
X558576Y308179D01*
X560576D01*
X561576Y307179D01*
Y303181D01*
X560576Y302181D01*
X558576D01*
X557577Y303181D01*
Y307179D01*
X567574Y308179D02*
X563575D01*
Y305180D01*
X565574Y306180D01*
X566574D01*
X567574Y305180D01*
Y303181D01*
X566574Y302181D01*
X564575D01*
X563575Y303181D01*
X573572Y308179D02*
X569573D01*
Y305180D01*
X571572Y306180D01*
X572572D01*
X573572Y305180D01*
Y303181D01*
X572572Y302181D01*
X570573D01*
X569573Y303181D01*
X632890Y262417D02*
Y268415D01*
X634889Y266416D01*
X636889Y268415D01*
Y262417D01*
X638888D02*
Y268415D01*
X641887D01*
X642886Y267416D01*
Y265416D01*
X641887Y264417D01*
X638888D01*
X644886Y268415D02*
X648885Y262417D01*
Y268415D02*
X644886Y262417D01*
X650884Y268415D02*
Y264417D01*
X652883Y262417D01*
X654883Y264417D01*
Y268415D01*
X656882D02*
X660881D01*
Y267416D01*
X656882Y263417D01*
Y262417D01*
X662880Y267416D02*
X663880Y268415D01*
X665879D01*
X666879Y267416D01*
Y263417D01*
X665879Y262417D01*
X663880D01*
X662880Y263417D01*
Y267416D01*
X668878D02*
X669878Y268415D01*
X671877D01*
X672877Y267416D01*
Y263417D01*
X671877Y262417D01*
X669878D01*
X668878Y263417D01*
Y267416D01*
X678875Y262417D02*
X674876D01*
X678875Y266416D01*
Y267416D01*
X677875Y268415D01*
X675876D01*
X674876Y267416D01*
X513992Y356543D02*
Y362541D01*
X515991Y360541D01*
X517991Y362541D01*
Y356543D01*
X520990Y360541D02*
X522989D01*
X523989Y359542D01*
Y356543D01*
X520990D01*
X519990Y357542D01*
X520990Y358542D01*
X523989D01*
X525988Y360541D02*
Y356543D01*
Y358542D01*
X526988Y359542D01*
X527988Y360541D01*
X528987D01*
X532986Y361541D02*
Y360541D01*
X531986D01*
X533986D01*
X532986D01*
Y357542D01*
X533986Y356543D01*
X536985D02*
X538984D01*
X537984D01*
Y360541D01*
X536985D01*
X541983Y356543D02*
Y360541D01*
X544982D01*
X545982Y359542D01*
Y356543D01*
X553979Y362541D02*
X557978D01*
X555978D01*
Y356543D01*
X560977Y360541D02*
X562976D01*
X563976Y359542D01*
Y356543D01*
X560977D01*
X559977Y357542D01*
X560977Y358542D01*
X563976D01*
X565975Y360541D02*
Y356543D01*
Y358542D01*
X566975Y359542D01*
X567975Y360541D01*
X568974D01*
X571973Y356543D02*
X573973D01*
X572973D01*
Y362541D01*
X571973D01*
X579971Y356543D02*
X577971D01*
X576972Y357542D01*
Y359542D01*
X577971Y360541D01*
X579971D01*
X580970Y359542D01*
Y358542D01*
X576972D01*
X582970Y360541D02*
X584969Y356543D01*
X586969Y360541D01*
X594966Y356543D02*
X596965D01*
X595966D01*
Y362541D01*
X594966Y361541D01*
X603963Y356543D02*
X599964D01*
X603963Y360541D01*
Y361541D01*
X602963Y362541D01*
X600964D01*
X599964Y361541D01*
X607962Y354543D02*
X608961D01*
X609961Y355543D01*
Y360541D01*
X606962D01*
X605962Y359542D01*
Y357542D01*
X606962Y356543D01*
X609961D01*
X312811Y318415D02*
Y312417D01*
X315810D01*
X316810Y313417D01*
Y314417D01*
X315810Y315416D01*
X312811D01*
X315810D01*
X316810Y316416D01*
Y317416D01*
X315810Y318415D01*
X312811D01*
X318809Y312417D02*
Y318415D01*
X320808Y316416D01*
X322808Y318415D01*
Y312417D01*
X328806Y318415D02*
X324807D01*
Y312417D01*
X328806D01*
X324807Y315416D02*
X326806D01*
X340802Y312417D02*
X336803D01*
X340802Y316416D01*
Y317416D01*
X339802Y318415D01*
X337803D01*
X336803Y317416D01*
X342801D02*
X343801Y318415D01*
X345800D01*
X346800Y317416D01*
Y316416D01*
X345800Y315416D01*
X346800Y314417D01*
Y313417D01*
X345800Y312417D01*
X343801D01*
X342801Y313417D01*
Y314417D01*
X343801Y315416D01*
X342801Y316416D01*
Y317416D01*
X343801Y315416D02*
X345800D01*
X348799Y317416D02*
X349799Y318415D01*
X351798D01*
X352798Y317416D01*
Y313417D01*
X351798Y312417D01*
X349799D01*
X348799Y313417D01*
Y317416D01*
X449487Y247155D02*
X445488D01*
Y241158D01*
X449487D01*
X445488Y244157D02*
X447487D01*
X455485Y246156D02*
X454485Y247155D01*
X452486D01*
X451486Y246156D01*
Y245156D01*
X452486Y244157D01*
X454485D01*
X455485Y243157D01*
Y242157D01*
X454485Y241158D01*
X452486D01*
X451486Y242157D01*
X457484Y241158D02*
Y247155D01*
X460483D01*
X461483Y246156D01*
Y244157D01*
X460483Y243157D01*
X457484D01*
X463482Y246156D02*
X464482Y247155D01*
X466481D01*
X467481Y246156D01*
Y245156D01*
X466481Y244157D01*
X465482D01*
X466481D01*
X467481Y243157D01*
Y242157D01*
X466481Y241158D01*
X464482D01*
X463482Y242157D01*
X473479Y241158D02*
X469480D01*
X473479Y245156D01*
Y246156D01*
X472479Y247155D01*
X470480D01*
X469480Y246156D01*
X363992Y162904D02*
Y156905D01*
Y159905D01*
X367991D01*
Y162904D01*
Y156905D01*
X373989Y161904D02*
X372989Y162904D01*
X370990D01*
X369990Y161904D01*
Y157905D01*
X370990Y156905D01*
X372989D01*
X373989Y157905D01*
X375988Y159905D02*
X379987D01*
X381986Y156905D02*
X383986D01*
X382986D01*
Y162904D01*
X381986Y161904D01*
X390983Y156905D02*
X386985D01*
X390983Y160904D01*
Y161904D01*
X389984Y162904D01*
X387984D01*
X386985Y161904D01*
X290777Y359206D02*
X292776D01*
X291777D01*
Y365204D01*
X290777Y364204D01*
X295775D02*
X296775Y365204D01*
X298775D01*
X299774Y364204D01*
Y360205D01*
X298775Y359206D01*
X296775D01*
X295775Y360205D01*
Y364204D01*
X667469Y107744D02*
X668468Y106744D01*
X670468D01*
X671467Y107744D01*
Y111742D01*
X670468Y112742D01*
X668468D01*
X667469Y111742D01*
Y110743D01*
X668468Y109743D01*
X671467D01*
X335614Y209086D02*
X334615Y210086D01*
X332615D01*
X331616Y209086D01*
Y205087D01*
X332615Y204088D01*
X334615D01*
X335614Y205087D01*
X337614Y209086D02*
X338614Y210086D01*
X340613D01*
X341613Y209086D01*
Y208086D01*
X340613Y207087D01*
X339613D01*
X340613D01*
X341613Y206087D01*
Y205087D01*
X340613Y204088D01*
X338614D01*
X337614Y205087D01*
X658387Y281346D02*
Y276347D01*
X659387Y275347D01*
X661386D01*
X662386Y276347D01*
Y281346D01*
X668384Y275347D02*
X664386D01*
X668384Y279346D01*
Y280346D01*
X667384Y281346D01*
X665385D01*
X664386Y280346D01*
X293245Y226621D02*
Y221623D01*
X294245Y220623D01*
X296244D01*
X297244Y221623D01*
Y226621D01*
X299243Y220623D02*
X301243D01*
X300243D01*
Y226621D01*
X299243Y225621D01*
X363629Y222379D02*
X357631D01*
Y225378D01*
X358631Y226378D01*
X360630D01*
X361630Y225378D01*
Y222379D01*
Y224379D02*
X363629Y226378D01*
Y228377D02*
Y230377D01*
Y229377D01*
X357631D01*
X358631Y228377D01*
X369805Y195033D02*
Y201030D01*
X372804D01*
X373803Y200031D01*
Y198031D01*
X372804Y197032D01*
X369805D01*
X375803Y201030D02*
X379802D01*
Y200031D01*
X375803Y196032D01*
Y195033D01*
X573742Y267080D02*
Y273078D01*
X576741D01*
X577740Y272078D01*
Y270079D01*
X576741Y269079D01*
X573742D01*
X583739Y273078D02*
X581739Y272078D01*
X579740Y270079D01*
Y268079D01*
X580739Y267080D01*
X582739D01*
X583739Y268079D01*
Y269079D01*
X582739Y270079D01*
X579740D01*
X572167Y335584D02*
Y341582D01*
X575166D01*
X576166Y340582D01*
Y338583D01*
X575166Y337583D01*
X572167D01*
X582164Y341582D02*
X578165D01*
Y338583D01*
X580164Y339582D01*
X581164D01*
X582164Y338583D01*
Y336583D01*
X581164Y335584D01*
X579165D01*
X578165Y336583D01*
X525900Y210800D02*
Y216798D01*
X528899D01*
X529899Y215798D01*
Y213799D01*
X528899Y212799D01*
X525900D01*
X534897Y210800D02*
Y216798D01*
X531898Y213799D01*
X535897D01*
X498545Y350544D02*
Y356542D01*
X501544D01*
X502544Y355543D01*
Y353543D01*
X501544Y352544D01*
X498545D01*
X504543Y355543D02*
X505543Y356542D01*
X507542D01*
X508542Y355543D01*
Y354543D01*
X507542Y353543D01*
X506542D01*
X507542D01*
X508542Y352544D01*
Y351544D01*
X507542Y350544D01*
X505543D01*
X504543Y351544D01*
X413300Y350300D02*
Y356298D01*
X416299D01*
X417299Y355298D01*
Y353299D01*
X416299Y352299D01*
X413300D01*
X423297Y350300D02*
X419298D01*
X423297Y354299D01*
Y355298D01*
X422297Y356298D01*
X420298D01*
X419298Y355298D01*
X391400Y341100D02*
Y347098D01*
X394399D01*
X395399Y346098D01*
Y344099D01*
X394399Y343099D01*
X391400D01*
X397398Y341100D02*
X399397D01*
X398398D01*
Y347098D01*
X397398Y346098D01*
X333419Y154956D02*
Y156956D01*
Y155956D01*
X328421D01*
X327421Y156956D01*
Y157955D01*
X328421Y158955D01*
X327421Y152957D02*
Y150958D01*
Y151957D01*
X333419D01*
X332419Y152957D01*
X384190Y236857D02*
Y230859D01*
X387189D01*
X388189Y231859D01*
Y235858D01*
X387189Y236857D01*
X384190D01*
X390188Y230859D02*
X392188D01*
X391188D01*
Y236857D01*
X390188Y235858D01*
X336796Y254362D02*
X335796Y255361D01*
X333797D01*
X332797Y254362D01*
Y250363D01*
X333797Y249363D01*
X335796D01*
X336796Y250363D01*
X341794Y249363D02*
Y255361D01*
X338795Y252362D01*
X342794D01*
X295851Y191369D02*
X294851Y192369D01*
X292852D01*
X291852Y191369D01*
Y187371D01*
X292852Y186371D01*
X294851D01*
X295851Y187371D01*
X301849Y186371D02*
X297850D01*
X301849Y190370D01*
Y191369D01*
X300849Y192369D01*
X298850D01*
X297850Y191369D01*
X301181Y171684D02*
X300181Y172684D01*
X298182D01*
X297182Y171684D01*
Y167686D01*
X298182Y166686D01*
X300181D01*
X301181Y167686D01*
X303181Y166686D02*
X305180D01*
X304180D01*
Y172684D01*
X303181Y171684D01*
X572213Y212826D02*
X573213Y213826D01*
X575212D01*
X576212Y212826D01*
Y211826D01*
X575212Y210827D01*
X576212Y209827D01*
Y208827D01*
X575212Y207828D01*
X573213D01*
X572213Y208827D01*
Y209827D01*
X573213Y210827D01*
X572213Y211826D01*
Y212826D01*
X573213Y210827D02*
X575212D01*
X571327Y126719D02*
X575326D01*
Y125720D01*
X571327Y121721D01*
Y120721D01*
X662399Y214767D02*
X660399Y213767D01*
X658400Y211768D01*
Y209768D01*
X659400Y208769D01*
X661399D01*
X662399Y209768D01*
Y210768D01*
X661399Y211768D01*
X658400D01*
X366665Y121109D02*
X362666D01*
Y118110D01*
X364665Y119110D01*
X365665D01*
X366665Y118110D01*
Y116111D01*
X365665Y115111D01*
X363666D01*
X362666Y116111D01*
X668499Y359500D02*
Y365498D01*
X665500Y362499D01*
X669499D01*
X280678Y126015D02*
X281678Y127015D01*
X283677D01*
X284677Y126015D01*
Y125015D01*
X283677Y124016D01*
X282677D01*
X283677D01*
X284677Y123016D01*
Y122016D01*
X283677Y121017D01*
X281678D01*
X280678Y122016D01*
X298456Y341489D02*
X294457D01*
X298456Y345488D01*
Y346487D01*
X297456Y347487D01*
X295457D01*
X294457Y346487D01*
X295063Y278497D02*
X297063D01*
X296063D01*
Y284495D01*
X295063Y283495D01*
D13*
X399213Y243110D02*
G03*
X399213Y254528I0J5709D01*
G01*
X645492Y334134D02*
X649990Y334144D01*
Y286644D02*
Y334144D01*
X645492Y286653D02*
X649990Y286644D01*
X602490Y334144D02*
X606988Y334134D01*
X602490Y286644D02*
Y334144D01*
Y286644D02*
X606988Y286653D01*
X369685Y240158D02*
Y257480D01*
X394882D01*
Y240158D02*
Y257480D01*
X369685Y240158D02*
X394882D01*
Y254528D02*
X399213D01*
X394882Y243110D02*
X399213D01*
X289951Y230502D02*
X303750D01*
X289951D02*
Y256112D01*
X303750D01*
Y230502D02*
Y256112D01*
D14*
X687795Y371654D02*
X687795Y100000D01*
X274409Y371654D02*
X687795D01*
X274410Y100000D02*
X687795D01*
X274409Y371654D02*
X274410Y100000D01*
M02*
