G04*
G04 #@! TF.GenerationSoftware,Altium Limited,Altium Designer,22.4.2 (48)*
G04*
G04 Layer_Physical_Order=1*
G04 Layer_Color=255*
%FSLAX25Y25*%
%MOIN*%
G70*
G04*
G04 #@! TF.SameCoordinates,35F994A0-CBEB-4DCB-B987-FA79AE394E82*
G04*
G04*
G04 #@! TF.FilePolarity,Positive*
G04*
G01*
G75*
%ADD12C,0.01000*%
%ADD14C,0.03000*%
%ADD15R,0.05984X0.10000*%
G04:AMPARAMS|DCode=16|XSize=36.61mil|YSize=51.58mil|CornerRadius=2.75mil|HoleSize=0mil|Usage=FLASHONLY|Rotation=90.000|XOffset=0mil|YOffset=0mil|HoleType=Round|Shape=RoundedRectangle|*
%AMROUNDEDRECTD16*
21,1,0.03661,0.04608,0,0,90.0*
21,1,0.03112,0.05158,0,0,90.0*
1,1,0.00549,0.02304,0.01556*
1,1,0.00549,0.02304,-0.01556*
1,1,0.00549,-0.02304,-0.01556*
1,1,0.00549,-0.02304,0.01556*
%
%ADD16ROUNDEDRECTD16*%
G04:AMPARAMS|DCode=17|XSize=127.56mil|YSize=51.58mil|CornerRadius=3.87mil|HoleSize=0mil|Usage=FLASHONLY|Rotation=90.000|XOffset=0mil|YOffset=0mil|HoleType=Round|Shape=RoundedRectangle|*
%AMROUNDEDRECTD17*
21,1,0.12756,0.04384,0,0,90.0*
21,1,0.11982,0.05158,0,0,90.0*
1,1,0.00774,0.02192,0.05991*
1,1,0.00774,0.02192,-0.05991*
1,1,0.00774,-0.02192,-0.05991*
1,1,0.00774,-0.02192,0.05991*
%
%ADD17ROUNDEDRECTD17*%
%ADD30C,0.02000*%
%ADD31C,0.04000*%
%ADD32R,0.05906X0.05906*%
%ADD33C,0.05906*%
%ADD34R,0.05906X0.05906*%
%ADD35C,0.06299*%
%ADD36R,0.06299X0.06299*%
%ADD37C,0.06000*%
%ADD38C,0.05512*%
%ADD39C,0.05000*%
G36*
X278296Y259842D02*
X288633D01*
Y225984D01*
X287846D01*
X278296D01*
Y259842D01*
D02*
G37*
D12*
X611240Y343386D02*
Y344358D01*
X608748Y346850D02*
X611240Y344358D01*
X513779Y346850D02*
X608748D01*
X506350Y243369D02*
X506361D01*
X532025Y269033D02*
X532115D01*
X503543Y241890D02*
X504871D01*
X506350Y243369D01*
X506361D02*
X532025Y269033D01*
X532115D02*
X533554Y270472D01*
X534882D01*
X502103Y244657D02*
X503543Y243217D01*
X450000Y296850D02*
X502103Y244747D01*
Y244657D02*
Y244747D01*
X503543Y241890D02*
Y243217D01*
X401614Y296850D02*
X450000D01*
X395768Y302697D02*
X401614Y296850D01*
X508425Y276772D02*
X538976D01*
X544882Y270866D01*
X468347Y307087D02*
X503543Y271890D01*
X508425Y276772D01*
X544882Y270472D02*
Y270866D01*
X401378Y307087D02*
X468347D01*
X530039Y182165D02*
X530315Y182441D01*
X530039Y172165D02*
X530315Y172441D01*
X395768Y312697D02*
X401378Y307087D01*
X380394Y196850D02*
X494488D01*
X366614Y210630D02*
X380394Y196850D01*
X490508Y206343D02*
X490551Y206299D01*
X400925Y206343D02*
X490508D01*
X400760Y206177D02*
X400925Y206343D01*
X381067Y206177D02*
X400760D01*
X376614Y210630D02*
X381067Y206177D01*
X503543Y171890D02*
X503819Y172165D01*
X530039D01*
X503543Y181890D02*
X503819Y182165D01*
X530039D01*
D14*
X530315Y202441D02*
X530871Y202997D01*
X503543Y341890D02*
X520236Y325197D01*
X560236D01*
X521260Y314173D02*
X572835D01*
X503543Y331890D02*
X521260Y314173D01*
X407362Y351575D02*
X483858D01*
X503543Y331890D01*
X402362Y359055D02*
X486378D01*
X503543Y341890D01*
X572835Y314173D02*
X617323D01*
X560236Y325197D02*
X614567D01*
X618110Y314567D02*
X631240Y327697D01*
Y343386D01*
X621240Y331476D02*
Y343386D01*
X615354Y325590D02*
X621240Y331476D01*
X351181Y261417D02*
X357874Y254724D01*
X366653D01*
X361724Y235874D02*
X362205Y235394D01*
X351181Y242126D02*
X357433Y235874D01*
X361724D01*
X325197Y225984D02*
X336776D01*
X316535Y234646D02*
X325197Y225984D01*
X349188Y243307D02*
X350369Y242126D01*
X351181D01*
X310020Y243307D02*
X349188D01*
X310197Y252146D02*
X323839D01*
X324016Y251969D01*
X310020Y252323D02*
X310197Y252146D01*
X350607Y260843D02*
X351181Y261417D01*
X366386Y265110D02*
X377559Y253937D01*
X362488Y265110D02*
X366386D01*
X316181Y234291D02*
X316535Y234646D01*
X310020Y234291D02*
X316181D01*
X367677Y229921D02*
X382677D01*
X362205Y235394D02*
X367677Y229921D01*
X382677D02*
X387402Y225197D01*
Y219843D02*
Y225197D01*
Y219843D02*
X396614Y210630D01*
X310020Y234291D02*
X310350Y234622D01*
X366653Y254724D02*
X377559Y243819D01*
D15*
X641240Y343386D02*
D03*
X631240D02*
D03*
X621240D02*
D03*
X611240D02*
D03*
Y277402D02*
D03*
X621240D02*
D03*
X631240D02*
D03*
X641240D02*
D03*
D16*
X310020Y234291D02*
D03*
Y243307D02*
D03*
Y252323D02*
D03*
D17*
X283681Y243307D02*
D03*
D30*
X377559Y253819D02*
Y253937D01*
X362205Y265394D02*
X362488Y265110D01*
D31*
X282677Y361811D02*
D03*
X679921Y108268D02*
D03*
X670866Y210236D02*
D03*
X563779Y123622D02*
D03*
X564173Y210630D02*
D03*
X677953Y361024D02*
D03*
X283071Y110236D02*
D03*
X287008Y281496D02*
D03*
X286614Y344094D02*
D03*
X355118Y117618D02*
D03*
D32*
X503543Y131890D02*
D03*
X530315Y132441D02*
D03*
X417717Y131890D02*
D03*
X395768Y282697D02*
D03*
D33*
X503543Y141890D02*
D03*
Y151890D02*
D03*
Y161890D02*
D03*
Y171890D02*
D03*
Y181890D02*
D03*
Y191890D02*
D03*
Y201890D02*
D03*
Y211890D02*
D03*
Y221890D02*
D03*
Y231890D02*
D03*
Y241890D02*
D03*
Y251890D02*
D03*
Y261890D02*
D03*
Y271890D02*
D03*
Y281890D02*
D03*
Y291890D02*
D03*
Y301890D02*
D03*
Y311890D02*
D03*
Y321890D02*
D03*
Y331890D02*
D03*
Y341890D02*
D03*
X554882Y338583D02*
D03*
X544882D02*
D03*
X534882D02*
D03*
X524882D02*
D03*
X534882Y270472D02*
D03*
X544882D02*
D03*
X554882D02*
D03*
X564882D02*
D03*
X530315Y202441D02*
D03*
Y192441D02*
D03*
Y182441D02*
D03*
Y172441D02*
D03*
Y162441D02*
D03*
Y152441D02*
D03*
Y142441D02*
D03*
X396614Y210630D02*
D03*
X386614D02*
D03*
X376614D02*
D03*
X366614D02*
D03*
X417717Y341890D02*
D03*
Y331890D02*
D03*
Y321890D02*
D03*
Y311890D02*
D03*
Y301890D02*
D03*
Y291890D02*
D03*
Y281890D02*
D03*
Y271890D02*
D03*
Y261890D02*
D03*
Y251890D02*
D03*
Y241890D02*
D03*
Y231890D02*
D03*
Y221890D02*
D03*
Y211890D02*
D03*
Y201890D02*
D03*
Y191890D02*
D03*
Y181890D02*
D03*
Y171890D02*
D03*
Y161890D02*
D03*
Y151890D02*
D03*
Y141890D02*
D03*
X395768Y292697D02*
D03*
Y302697D02*
D03*
Y312697D02*
D03*
Y322697D02*
D03*
Y332697D02*
D03*
D34*
X564882Y338583D02*
D03*
X524882Y270472D02*
D03*
X356614Y210630D02*
D03*
D35*
X315774Y116059D02*
D03*
X377559Y253819D02*
D03*
Y243819D02*
D03*
D36*
X315774Y135744D02*
D03*
D37*
X337008Y226378D02*
D03*
Y218504D02*
D03*
X315381Y169996D02*
D03*
X323255D02*
D03*
X310656Y189287D02*
D03*
X329947D02*
D03*
X351181Y242126D02*
D03*
Y261417D02*
D03*
D38*
X362205Y235394D02*
D03*
Y265394D02*
D03*
D39*
X513779Y346850D02*
D03*
X572835Y314173D02*
D03*
X560236Y325197D02*
D03*
X407362Y351575D02*
D03*
X402362Y359055D02*
D03*
X324016Y251969D02*
D03*
X494488Y196850D02*
D03*
X490551Y206299D02*
D03*
X316535Y234646D02*
D03*
M02*
